<?xml version="1.0" standalone="no"?>
<!DOCTYPE svg PUBLIC "-//W3C//DTD SVG 20010904//EN"
 "http://www.w3.org/TR/2001/REC-SVG-20010904/DTD/svg10.dtd">
<svg version="1.0" xmlns="http://www.w3.org/2000/svg"
 width="512.000000pt" height="512.000000pt" viewBox="0 0 512.000000 512.000000"
 preserveAspectRatio="xMidYMid meet">
<metadata>
Created by potrace 1.11, written by Peter Selinger 2001-2013
</metadata>
<g transform="translate(0.000000,512.000000) scale(0.100000,-0.100000)"
fill="#000000" stroke="none">
<path d="M2280 4955 c-375 -46 -733 -177 -1041 -381 -57 -38 -106 -71 -109
-74 -3 -3 -25 -21 -50 -40 -78 -60 -102 -82 -211 -190 -127 -127 -185 -195
-273 -320 -36 -52 -69 -100 -73 -106 -30 -41 -153 -282 -183 -359 -13 -33 -29
-63 -34 -67 -6 -4 -8 -8 -4 -8 6 0 -14 -73 -32 -115 -11 -25 -32 -100 -43
-155 -3 -14 -10 -45 -17 -70 -6 -25 -13 -65 -16 -90 -3 -25 -7 -52 -10 -60 -3
-8 -8 -41 -10 -72 -2 -31 -6 -78 -9 -105 -6 -56 -7 -265 -2 -306 3 -15 0 -30
-5 -33 -5 -4 -5 -10 0 -17 5 -7 12 -44 15 -83 4 -39 9 -77 11 -85 3 -8 7 -34
10 -58 3 -24 8 -46 11 -49 3 -3 -1 -12 -8 -20 -7 -10 -8 -13 -1 -9 14 8 29
-57 18 -75 -4 -6 -3 -8 2 -5 6 3 16 -20 23 -51 18 -78 71 -228 119 -341 34
-77 39 -98 29 -110 -10 -14 -10 -14 4 -4 13 10 19 4 43 -42 15 -30 24 -59 21
-65 -4 -6 -3 -9 2 -8 4 2 10 -2 12 -7 3 -6 13 -19 23 -29 9 -10 15 -22 13 -26
-3 -5 2 -10 10 -14 8 -3 15 -12 15 -20 0 -8 3 -16 8 -18 8 -3 72 -96 72 -104
0 -3 -6 -2 -12 2 -8 4 -10 3 -5 -2 5 -5 14 -9 20 -9 7 -1 11 -6 10 -13 -2 -7
2 -12 8 -12 5 0 7 -5 4 -10 -4 -6 -3 -9 2 -8 9 3 73 -64 73 -75 0 -7 34 -43
131 -142 34 -34 56 -65 52 -70 -4 -6 -4 -7 1 -3 5 4 15 3 23 -3 11 -10 11 -15
1 -28 -11 -14 -11 -14 4 -3 14 11 24 6 75 -39 32 -28 64 -59 70 -67 7 -9 13
-12 13 -7 0 4 9 0 20 -10 11 -10 17 -22 13 -28 -3 -6 -1 -7 5 -3 13 8 64 -22
57 -33 -2 -4 2 -8 9 -8 13 0 107 -60 117 -76 3 -5 10 -9 15 -9 5 0 36 -15 69
-33 33 -18 77 -41 97 -51 20 -9 35 -20 33 -24 -2 -3 8 -7 23 -8 14 -1 29 -7
33 -13 3 -6 8 -10 10 -8 9 5 49 -13 49 -22 0 -6 5 -7 10 -4 6 4 18 1 27 -7 9
-7 18 -12 20 -10 8 5 24 1 20 -6 -3 -4 9 -8 25 -9 17 -1 35 -6 42 -11 6 -5 35
-15 64 -23 28 -7 52 -15 52 -19 0 -3 14 -7 31 -8 17 -1 39 -6 48 -11 9 -5 39
-12 66 -16 28 -4 59 -14 69 -23 11 -10 16 -11 12 -4 -9 15 -2 15 94 -3 41 -7
78 -11 82 -9 4 2 9 0 12 -5 7 -11 516 -11 516 0 0 4 8 6 17 5 9 -2 45 3 80 9
45 8 66 9 74 1 9 -8 10 -8 5 1 -4 8 -2 13 6 14 32 2 174 35 237 56 24 7 51 11
58 9 9 -4 11 -1 7 6 -5 8 -2 9 9 5 10 -3 17 -3 17 1 0 4 26 16 58 27 31 10 70
25 85 32 24 12 31 12 45 1 15 -11 15 -11 4 3 -11 15 -5 19 45 39 32 13 63 27
70 32 7 6 18 6 24 2 8 -5 9 -3 4 6 -6 10 -4 12 9 7 9 -4 15 -3 12 2 -7 11 22
23 36 14 7 -3 8 -1 4 5 -11 19 32 36 52 20 15 -11 16 -11 4 3 -11 15 -7 20 34
43 25 14 51 23 58 19 6 -3 8 -3 4 2 -8 8 22 34 99 85 29 19 53 38 53 43 0 4 4
7 10 7 5 0 20 10 32 22 13 13 45 41 71 63 27 22 69 61 94 87 25 26 50 45 56
41 6 -3 7 -1 4 4 -8 13 27 46 38 36 4 -5 5 -3 2 3 -4 7 13 34 36 60 24 27 67
81 97 119 29 39 57 69 61 68 5 -2 6 4 2 13 -4 10 2 17 16 21 11 3 19 9 16 13
-9 14 6 40 19 33 6 -3 8 -3 4 2 -4 4 8 30 26 59 18 28 35 59 39 69 3 9 11 17
17 17 6 0 9 4 5 9 -3 5 0 15 7 23 7 7 14 18 15 23 2 8 60 143 115 265 6 14 13
34 15 45 1 11 9 36 17 55 16 42 63 213 69 255 3 17 8 42 12 56 3 14 8 41 10
60 2 19 4 34 5 34 1 0 4 31 6 70 3 38 11 73 17 77 8 5 8 8 1 8 -6 0 -11 7 -11
15 0 8 4 15 8 15 4 0 4 13 -1 29 -4 16 -6 32 -3 35 6 6 5 150 -3 257 -6 98
-22 218 -40 302 -8 38 -12 72 -9 77 3 5 2 10 -3 12 -4 1 -17 39 -29 83 -21 80
-48 162 -66 202 -5 11 -6 27 -2 34 5 7 4 10 -2 6 -5 -3 -20 20 -33 51 -40 101
-140 284 -212 392 -65 96 -94 135 -168 225 -57 69 -271 275 -350 335 -359 276
-755 440 -1195 494 -139 17 -428 17 -565 1z"/>
</g>
</svg>
